<svg width="560" height="145" viewBox="0 0 560 145" fill="none" xmlns="http://www.w3.org/2000/svg">
<path d="M400.138 29.3709V50.2739H398.626C398.275 47.4693 397.684 45.1029 396.851 43.1748C396.062 41.2028 395.01 39.6252 393.696 38.442C392.381 37.215 390.782 36.3386 388.897 35.8127C387.013 35.243 384.822 34.9582 382.324 34.9582H369.769V103.057C369.769 108.535 370.361 111.953 371.544 113.312C373.165 115.152 375.729 116.073 379.235 116.073H382.324V118.505H344.528V116.073H347.683C351.451 116.073 354.125 114.933 355.702 112.654C356.666 111.296 357.148 108.097 357.148 103.057V34.9582H346.434C343.717 34.9582 341.35 35.1554 339.335 35.5498C337.319 35.9442 335.61 36.6891 334.207 37.7847C332.805 38.8802 331.666 40.4359 330.789 42.4517C329.913 44.4675 329.256 47.0749 328.817 50.2739H326.32V29.3709H400.138Z" fill="white"/>
<path d="M418.871 80.9712C418.871 85.441 419.463 89.4507 420.646 93.0003C421.829 96.5499 423.429 99.5736 425.445 102.071C427.461 104.525 429.783 106.41 432.412 107.724C435.086 108.995 437.89 109.631 440.826 109.631C444.77 109.631 448.188 108.557 451.081 106.41C454.017 104.219 456.471 100.494 458.443 95.2352L460.48 96.5499C459.998 99.486 459.078 102.378 457.72 105.227C456.361 108.075 454.608 110.617 452.461 112.852C450.358 115.087 447.882 116.905 445.033 118.307C442.229 119.666 439.161 120.345 435.831 120.345C432.237 120.345 428.841 119.622 425.642 118.176C422.487 116.686 419.704 114.605 417.294 111.931C414.927 109.214 413.043 105.95 411.641 102.137C410.239 98.2809 409.537 93.9644 409.537 89.1878C409.537 83.973 410.239 79.3498 411.641 75.3182C413.087 71.2427 415.059 67.8027 417.557 64.9981C420.055 62.1935 422.991 60.0681 426.365 58.622C429.783 57.1759 433.442 56.4528 437.342 56.4528C440.673 56.4528 443.74 57.0444 446.545 58.2276C449.393 59.367 451.847 61.0103 453.907 63.1576C455.967 65.3049 457.566 67.8903 458.706 70.9141C459.889 73.894 460.48 77.2463 460.48 80.9712H418.871ZM418.871 77.1587H446.742C446.567 73.3024 446.107 70.5854 445.362 69.0078C444.266 66.5538 442.623 64.6256 440.432 63.2233C438.285 61.821 436.028 61.1199 433.661 61.1199C431.865 61.1199 430.134 61.4923 428.468 62.2373C426.803 62.9385 425.291 63.9902 423.933 65.3925C422.574 66.751 421.435 68.4162 420.515 70.3882C419.638 72.3602 419.091 74.617 418.871 77.1587Z" fill="white"/>
<path d="M519.311 69.1393L538.44 97.6674C541.113 101.655 543.413 104.898 545.342 107.396C547.314 109.85 548.935 111.603 550.206 112.654C552.747 114.714 556.012 115.853 560 116.073V118.505H521.743V116.073C524.767 115.985 526.98 115.525 528.382 114.692C529.829 113.86 530.552 112.633 530.552 111.011C530.552 110.441 530.552 110.003 530.552 109.696C530.595 109.346 530.486 108.908 530.223 108.382C530.004 107.856 529.588 107.133 528.974 106.213C528.404 105.292 527.528 103.956 526.345 102.203L511.226 79.3279L492.558 103.255C491.506 104.569 490.696 105.621 490.126 106.41C489.6 107.199 489.206 107.856 488.943 108.382C488.68 108.908 488.526 109.368 488.483 109.762C488.439 110.113 488.417 110.529 488.417 111.011C488.417 111.712 488.548 112.37 488.811 112.983C489.074 113.553 489.534 114.057 490.192 114.495C490.849 114.933 491.725 115.306 492.821 115.612C493.917 115.875 495.297 116.029 496.962 116.073V118.505H465.345V116.073C468.105 115.853 470.538 115.196 472.641 114.101C474.788 113.005 476.87 111.668 478.886 110.091C481.383 108.119 484.188 105.161 487.299 101.217L508.334 74.6608L490.783 48.9593C485.963 41.9916 481.909 37.4341 478.623 35.2868C475.248 33.0957 471.414 31.9344 467.119 31.803V29.3709H508.334V31.803C506.581 31.8906 505.113 32.0878 503.93 32.3946C502.747 32.7013 501.804 33.0957 501.103 33.5778C500.402 34.016 499.898 34.5199 499.591 35.0896C499.329 35.6593 499.197 36.2509 499.197 36.8644C499.197 38.5296 500.249 40.896 502.352 43.9636L516.025 64.4065L531.866 44.358C532.83 43.131 533.575 42.145 534.101 41.4C534.671 40.655 535.087 40.0196 535.35 39.4937C535.613 38.9679 535.766 38.5077 535.81 38.1133C535.854 37.7189 535.876 37.2807 535.876 36.7987C535.876 35.7908 535.547 34.8924 534.89 34.1036C534.233 33.3148 533.466 32.7671 532.589 32.4603C532.107 32.285 531.34 32.1536 530.289 32.0659C529.237 31.9344 527.922 31.8468 526.345 31.803V29.3709H557.962V31.803C556.472 31.8906 555.136 32.0878 553.953 32.3946C552.769 32.6575 551.674 33.0081 550.666 33.4463C549.702 33.8845 548.782 34.4104 547.905 35.0239C547.029 35.6374 546.174 36.3166 545.342 37.0616C543.457 38.7268 540.675 41.882 536.993 46.5272L519.311 69.1393Z" fill="white"/>
<path d="M30.7546 27.8752H47.1452L64.1914 97.4585H65.2404L105.19 27.8752H121.58L106.719 117.389H93.8692L104.665 52.614H103.835L66.6827 117.258H55.9742L40.4141 52.5703H39.5837L28.7441 117.389H15.8939L30.7546 27.8752Z" fill="white"/>
<path d="M133.917 117.389H119.58L166.654 27.8752H182.258L199.61 117.389H185.274L172.205 44.1346H171.506L133.917 117.389ZM142.134 82.3355H188.639L186.716 93.6996H140.211L142.134 82.3355Z" fill="white"/>
<path d="M249.809 50.2538L248.104 60.7437H211.433L213.138 50.2538H249.809ZM225.594 34.1692H238.663L228.086 97.6771C227.678 100.212 227.751 102.121 228.304 103.403C228.858 104.656 229.703 105.515 230.839 105.982C232.005 106.419 233.302 106.637 234.729 106.637C235.778 106.637 236.696 106.564 237.483 106.419C238.27 106.273 238.896 106.156 239.363 106.069L240.062 116.865C239.188 117.156 238.008 117.448 236.522 117.739C235.065 118.06 233.287 118.234 231.189 118.264C227.751 118.322 224.647 117.71 221.879 116.428C219.111 115.117 217.042 113.135 215.673 110.484C214.303 107.803 213.968 104.437 214.667 100.387L225.594 34.1692Z" fill="white"/>
<path d="M257.49 72.6323L258.714 64.8523L282.535 47.0631C284.779 45.373 286.688 43.8724 288.261 42.5611C289.834 41.2207 291.073 39.9386 291.976 38.7148C292.879 37.4618 293.448 36.1215 293.681 34.6937C294.089 32.246 293.477 30.3229 291.845 28.9242C290.213 27.4964 287.955 26.7825 285.07 26.7825C282.273 26.7825 279.782 27.5401 277.596 29.0553C275.411 30.5414 274.1 32.6248 273.662 35.3056H263.173C263.988 30.2937 266.509 26.1997 270.734 23.0236C274.959 19.8475 280.073 18.2594 286.076 18.2594C290.213 18.2594 293.652 19.0025 296.391 20.4885C299.13 21.9746 301.111 23.9706 302.335 26.4765C303.559 28.9825 303.938 31.7798 303.471 34.8685C303.122 37.1122 302.35 39.2393 301.155 41.2499C299.989 43.2605 298.212 45.3584 295.823 47.5438C293.433 49.7001 290.257 52.1478 286.294 54.8868L274.449 63.4536L274.406 63.847H300.062L298.664 72.6323H257.49Z" fill="white"/>
<rect x="1.89896" width="34.1815" height="7.05332" fill="white"/>
<rect x="8.9523" y="7.05332" width="21.16" height="7.05332" transform="rotate(90 8.9523 7.05332)" fill="white"/>
<rect width="34.1815" height="7.05332" transform="matrix(-1 0 0 1 324.724 0)" fill="white"/>
<rect width="21.16" height="7.05332" transform="matrix(4.37114e-08 1 1 -4.37114e-08 317.671 7.05332)" fill="white"/>
<rect width="34.1815" height="7.05332" transform="matrix(1 0 0 -1 0 145)" fill="white"/>
<rect width="21.16" height="7.05332" transform="matrix(-4.37114e-08 -1 -1 4.37114e-08 7.05328 137.947)" fill="white"/>
<rect x="322.825" y="145" width="34.1815" height="7.05332" transform="rotate(-180 322.825 145)" fill="white"/>
<rect x="315.772" y="137.947" width="21.16" height="7.05332" transform="rotate(-90 315.772 137.947)" fill="white"/>
</svg>
